<?xml version="1.0" standalone="no"?>
<svg viewBox="0 0 200 200" xmlns="http://www.w3.org/2000/svg">
  <path fill="#FF0066" d="M28.7,-55.9C35.3,-45.9,37.3,-34.3,45.6,-24.7C53.8,-15.2,68.2,-7.6,73.5,3C78.8,13.7,74.9,27.4,67.5,38.3C60,49.3,49,57.5,37.2,61.9C25.3,66.3,12.7,66.8,1.3,64.6C-10.1,62.4,-20.2,57.4,-28.2,50.8C-36.3,44.3,-42.4,36.1,-45.1,27.4C-47.9,18.6,-47.4,9.3,-48.7,-0.8C-50,-10.9,-53.2,-21.7,-52.3,-33.5C-51.3,-45.3,-46.1,-58.1,-36.7,-66.5C-27.3,-74.9,-13.6,-79,-1.3,-76.7C11.1,-74.5,22.1,-66,28.7,-55.9Z" transform="translate(100 100)" />
</svg>
